<?xml version="1.0" encoding="UTF-8"?>
<svg version="1.1" xmlns="http://www.w3.org/2000/svg" width="288" height="288">
<path d="M0 0 C95.04 0 190.08 0 288 0 C288 95.04 288 190.08 288 288 C192.96 288 97.92 288 0 288 C0 192.96 0 97.92 0 0 Z " fill="#F7FBFE" transform="translate(0,0)"/>
<path d="M0 0 C2.875 0.875 2.875 0.875 4.875 2.875 C5 6.5 5 6.5 4.875 9.875 C3.555 10.535 2.235 11.195 0.875 11.875 C0.89071045 12.86830322 0.9064209 13.86160645 0.92260742 14.88500977 C0.97720199 18.59553818 1.01145656 22.30603158 1.03979492 26.0168457 C1.05481466 27.61814356 1.07523663 29.21940075 1.10131836 30.82055664 C1.13800438 33.13177571 1.15479435 35.44244756 1.16796875 37.75390625 C1.18345261 38.46148575 1.19893646 39.16906525 1.21488953 39.89808655 C1.21659972 45.03167076 0.18479326 48.39334826 -2.125 52.875 C-3.115 53.865 -3.115 53.865 -4.125 54.875 C-5.115 54.875 -6.105 54.875 -7.125 54.875 C-7.063125 56.050625 -7.00125 57.22625 -6.9375 58.4375 C-6.96394641 63.42705646 -8.04013071 67.61493161 -11.51953125 71.38671875 C-16.48424511 75.7732634 -20.28203585 75.99887396 -26.71020508 76.03613281 C-27.68907936 76.04358017 -27.68907936 76.04358017 -28.68772888 76.05117798 C-30.8400072 76.06574538 -32.99221179 76.07259273 -35.14453125 76.078125 C-36.64662171 76.0838812 -38.14871216 76.08963887 -39.65080261 76.09539795 C-42.79886211 76.10589272 -45.94689618 76.11174525 -49.0949707 76.11523438 C-53.11647301 76.12071395 -57.13763587 76.14473668 -61.15903187 76.17320633 C-64.26211001 76.19188838 -67.36510731 76.19704127 -70.46823692 76.19857025 C-71.95011944 76.20158509 -73.43200094 76.20957393 -74.9138279 76.22275543 C-76.99334702 76.23993242 -79.07204882 76.23790798 -81.15161133 76.23144531 C-82.33201492 76.23509094 -83.51241852 76.23873657 -84.72859192 76.24249268 C-89.3033033 75.74750712 -93.28080833 74.42560959 -96.8671875 71.41015625 C-101.28808452 65.66299012 -101.24200957 61.8955744 -101.125 54.875 C-101.723125 54.7925 -102.32125 54.71 -102.9375 54.625 C-105.77185403 53.65322147 -106.5704043 52.39196446 -108.125 49.875 C-109.7914278 44.87571661 -110.24240468 38.86825501 -108.37109375 33.85546875 C-106.88729097 31.4639278 -105.71061631 30.05239472 -102.984375 29.2265625 C-102.06398438 29.05253906 -102.06398438 29.05253906 -101.125 28.875 C-101.17140625 28.2459375 -101.2178125 27.616875 -101.265625 26.96875 C-101.53190126 20.6541987 -100.80614217 16.10146806 -97.125 10.875 C-92.88935327 6.89605913 -88.92796854 6.74238352 -83.28613281 6.69799805 C-82.24895615 6.68814125 -82.24895615 6.68814125 -81.19082642 6.67808533 C-78.90325812 6.65838102 -76.61575543 6.64669531 -74.328125 6.63671875 C-73.15384068 6.63060546 -73.15384068 6.63060546 -71.95583344 6.62436867 C-67.81105311 6.60351873 -63.66630578 6.58921318 -59.52148438 6.57983398 C-55.24988263 6.56878027 -50.97880334 6.53438975 -46.70738602 6.49466228 C-43.41472434 6.46845973 -40.12218639 6.46013888 -36.82942963 6.45655251 C-35.25542427 6.45169481 -33.68142413 6.44010409 -32.10752106 6.42151451 C-29.89841369 6.39704721 -27.69064796 6.39810115 -25.48144531 6.4050293 C-24.22696594 6.39916306 -22.97248657 6.39329681 -21.67999268 6.38725281 C-15.99291868 7.16752288 -12.3120968 9.3835194 -8.6875 13.9375 C-6.27560384 18.63813166 -6.79047126 23.73626688 -7.125 28.875 C-5.145 29.37 -5.145 29.37 -3.125 29.875 C-2.795 23.935 -2.465 17.995 -2.125 11.875 C-3.445 11.215 -4.765 10.555 -6.125 9.875 C-7.125 8.875 -7.125 8.875 -7.4375 6.5625 C-7.125 3.875 -7.125 3.875 -5.5 1.5 C-3.125 -0.125 -3.125 -0.125 0 0 Z " fill="#F2F6F8" transform="translate(196.125,81.125)"/>
<path d="M0 0 C2.875 0.875 2.875 0.875 4.875 2.875 C5 6.5 5 6.5 4.875 9.875 C3.555 10.535 2.235 11.195 0.875 11.875 C0.89071045 12.86830322 0.9064209 13.86160645 0.92260742 14.88500977 C0.97720199 18.59553818 1.01145656 22.30603158 1.03979492 26.0168457 C1.05481466 27.61814356 1.07523663 29.21940075 1.10131836 30.82055664 C1.13800438 33.13177571 1.15479435 35.44244756 1.16796875 37.75390625 C1.18345261 38.46148575 1.19893646 39.16906525 1.21488953 39.89808655 C1.21659972 45.03167076 0.18479326 48.39334826 -2.125 52.875 C-3.115 53.865 -3.115 53.865 -4.125 54.875 C-5.115 54.875 -6.105 54.875 -7.125 54.875 C-7.063125 56.050625 -7.00125 57.22625 -6.9375 58.4375 C-6.96394641 63.42705646 -8.04013071 67.61493161 -11.51953125 71.38671875 C-16.48424511 75.7732634 -20.28203585 75.99887396 -26.71020508 76.03613281 C-27.68907936 76.04358017 -27.68907936 76.04358017 -28.68772888 76.05117798 C-30.8400072 76.06574538 -32.99221179 76.07259273 -35.14453125 76.078125 C-36.64662171 76.0838812 -38.14871216 76.08963887 -39.65080261 76.09539795 C-42.79886211 76.10589272 -45.94689618 76.11174525 -49.0949707 76.11523438 C-53.11647301 76.12071395 -57.13763587 76.14473668 -61.15903187 76.17320633 C-64.26211001 76.19188838 -67.36510731 76.19704127 -70.46823692 76.19857025 C-71.95011944 76.20158509 -73.43200094 76.20957393 -74.9138279 76.22275543 C-76.99334702 76.23993242 -79.07204882 76.23790798 -81.15161133 76.23144531 C-82.33201492 76.23509094 -83.51241852 76.23873657 -84.72859192 76.24249268 C-89.3033033 75.74750712 -93.28080833 74.42560959 -96.8671875 71.41015625 C-101.28808452 65.66299012 -101.24200957 61.8955744 -101.125 54.875 C-101.723125 54.7925 -102.32125 54.71 -102.9375 54.625 C-105.77185403 53.65322147 -106.5704043 52.39196446 -108.125 49.875 C-109.7914278 44.87571661 -110.24240468 38.86825501 -108.37109375 33.85546875 C-106.88729097 31.4639278 -105.71061631 30.05239472 -102.984375 29.2265625 C-102.06398438 29.05253906 -102.06398438 29.05253906 -101.125 28.875 C-101.17140625 28.2459375 -101.2178125 27.616875 -101.265625 26.96875 C-101.53190126 20.6541987 -100.80614217 16.10146806 -97.125 10.875 C-92.88935327 6.89605913 -88.92796854 6.74238352 -83.28613281 6.69799805 C-82.24895615 6.68814125 -82.24895615 6.68814125 -81.19082642 6.67808533 C-78.90325812 6.65838102 -76.61575543 6.64669531 -74.328125 6.63671875 C-73.15384068 6.63060546 -73.15384068 6.63060546 -71.95583344 6.62436867 C-67.81105311 6.60351873 -63.66630578 6.58921318 -59.52148438 6.57983398 C-55.24988263 6.56878027 -50.97880334 6.53438975 -46.70738602 6.49466228 C-43.41472434 6.46845973 -40.12218639 6.46013888 -36.82942963 6.45655251 C-35.25542427 6.45169481 -33.68142413 6.44010409 -32.10752106 6.42151451 C-29.89841369 6.39704721 -27.69064796 6.39810115 -25.48144531 6.4050293 C-24.22696594 6.39916306 -22.97248657 6.39329681 -21.67999268 6.38725281 C-15.99291868 7.16752288 -12.3120968 9.3835194 -8.6875 13.9375 C-6.27560384 18.63813166 -6.79047126 23.73626688 -7.125 28.875 C-5.145 29.37 -5.145 29.37 -3.125 29.875 C-2.795 23.935 -2.465 17.995 -2.125 11.875 C-3.445 11.215 -4.765 10.555 -6.125 9.875 C-7.125 8.875 -7.125 8.875 -7.4375 6.5625 C-7.125 3.875 -7.125 3.875 -5.5 1.5 C-3.125 -0.125 -3.125 -0.125 0 0 Z M-91.125 19.875 C-92.74193064 23.10886127 -92.30936668 26.65301856 -92.328125 30.20703125 C-92.33382507 31.03579269 -92.33952515 31.86455414 -92.34539795 32.71842957 C-92.35485248 34.47446413 -92.36138373 36.23051647 -92.36523438 37.98657227 C-92.37492406 40.66649596 -92.4059359 43.34564753 -92.4375 46.02539062 C-92.44403173 47.73176628 -92.44928154 49.43814742 -92.453125 51.14453125 C-92.4654718 51.94365433 -92.4778186 52.7427774 -92.49053955 53.56611633 C-92.47226046 58.15830899 -92.09678107 61.139473 -89.125 64.875 C-86.33586542 66.26956729 -84.0233513 66.02542786 -80.90283203 66.05200195 C-79.59452423 66.06483719 -78.28621643 66.07767242 -76.93826294 66.09089661 C-75.50311663 66.09906327 -74.06796606 66.10650714 -72.6328125 66.11328125 C-71.55082895 66.11939454 -71.55082895 66.11939454 -70.44698715 66.12563133 C-66.62986283 66.14649017 -62.81277446 66.16079322 -58.99560547 66.17016602 C-55.05211458 66.18123639 -51.10918705 66.2156432 -47.16589546 66.25533772 C-44.13413438 66.28147455 -41.10250822 66.28985513 -38.07064438 66.29344749 C-36.61696437 66.29832032 -35.16329067 66.30995427 -33.70972061 66.32848549 C-31.67527077 66.35281203 -29.64054727 66.34949853 -27.60595703 66.3449707 C-26.44838898 66.35083694 -25.29082092 66.35670319 -24.09817505 66.36274719 C-20.4920083 65.77115817 -19.36010216 64.7010085 -17.125 61.875 C-15.50845079 58.64190158 -15.91932415 55.09704643 -15.88671875 51.54296875 C-15.87461113 50.29982658 -15.87461113 50.29982658 -15.86225891 49.03157043 C-15.84841779 47.27554415 -15.83769576 45.51949096 -15.82983398 43.76342773 C-15.81263349 41.08329991 -15.76875074 38.40440972 -15.72460938 35.72460938 C-15.71448121 34.01823824 -15.70596549 32.31185661 -15.69921875 30.60546875 C-15.67295662 29.40678413 -15.67295662 29.40678413 -15.64616394 28.18388367 C-15.66139715 24.25809306 -15.85427666 22.31413029 -17.96411133 18.8918457 C-21.48360839 15.60695527 -24.54544934 15.7394757 -29.16943359 15.69799805 C-30.41437592 15.68516281 -31.65931824 15.67232758 -32.94198608 15.65910339 C-34.30246584 15.65093635 -35.6629501 15.64349255 -37.0234375 15.63671875 C-37.70949696 15.63264322 -38.39555641 15.6285677 -39.10240555 15.62436867 C-42.7326553 15.60353051 -46.36286749 15.58921824 -49.99316406 15.57983398 C-53.73812366 15.56876474 -57.48248986 15.53435347 -61.22723961 15.49466228 C-64.1114918 15.46849449 -66.99560247 15.46014215 -69.87996292 15.45655251 C-71.26025024 15.45168811 -72.6405313 15.44007808 -74.02070236 15.42151451 C-75.95424796 15.39712114 -77.88808316 15.40050808 -79.82177734 15.4050293 C-80.9208139 15.39916306 -82.01985046 15.39329681 -83.15219116 15.38725281 C-86.82112121 15.98921224 -88.47814916 17.31715478 -91.125 19.875 Z " fill="#EFF2F4" transform="translate(196.125,81.125)"/>
<path d="M0 0 C2.875 0.875 2.875 0.875 4.875 2.875 C5 6.5 5 6.5 4.875 9.875 C3.555 10.535 2.235 11.195 0.875 11.875 C0.89071045 12.86830322 0.9064209 13.86160645 0.92260742 14.88500977 C0.97720199 18.59553818 1.01145656 22.30603158 1.03979492 26.0168457 C1.05481466 27.61814356 1.07523663 29.21940075 1.10131836 30.82055664 C1.13800438 33.13177571 1.15479435 35.44244756 1.16796875 37.75390625 C1.18345261 38.46148575 1.19893646 39.16906525 1.21488953 39.89808655 C1.21659972 45.03167076 0.18479326 48.39334826 -2.125 52.875 C-3.115 53.865 -3.115 53.865 -4.125 54.875 C-5.115 54.875 -6.105 54.875 -7.125 54.875 C-7.063125 56.050625 -7.00125 57.22625 -6.9375 58.4375 C-6.96394641 63.42705646 -8.04013071 67.61493161 -11.51953125 71.38671875 C-16.48424511 75.7732634 -20.28203585 75.99887396 -26.71020508 76.03613281 C-27.68907936 76.04358017 -27.68907936 76.04358017 -28.68772888 76.05117798 C-30.8400072 76.06574538 -32.99221179 76.07259273 -35.14453125 76.078125 C-36.64662171 76.0838812 -38.14871216 76.08963887 -39.65080261 76.09539795 C-42.79886211 76.10589272 -45.94689618 76.11174525 -49.0949707 76.11523438 C-53.11647301 76.12071395 -57.13763587 76.14473668 -61.15903187 76.17320633 C-64.26211001 76.19188838 -67.36510731 76.19704127 -70.46823692 76.19857025 C-71.95011944 76.20158509 -73.43200094 76.20957393 -74.9138279 76.22275543 C-76.99334702 76.23993242 -79.07204882 76.23790798 -81.15161133 76.23144531 C-82.33201492 76.23509094 -83.51241852 76.23873657 -84.72859192 76.24249268 C-89.3033033 75.74750712 -93.28080833 74.42560959 -96.8671875 71.41015625 C-101.28808452 65.66299012 -101.24200957 61.8955744 -101.125 54.875 C-101.723125 54.7925 -102.32125 54.71 -102.9375 54.625 C-105.77185403 53.65322147 -106.5704043 52.39196446 -108.125 49.875 C-109.7914278 44.87571661 -110.24240468 38.86825501 -108.37109375 33.85546875 C-106.88729097 31.4639278 -105.71061631 30.05239472 -102.984375 29.2265625 C-102.06398438 29.05253906 -102.06398438 29.05253906 -101.125 28.875 C-101.17140625 28.2459375 -101.2178125 27.616875 -101.265625 26.96875 C-101.53190126 20.6541987 -100.80614217 16.10146806 -97.125 10.875 C-92.88935327 6.89605913 -88.92796854 6.74238352 -83.28613281 6.69799805 C-82.24895615 6.68814125 -82.24895615 6.68814125 -81.19082642 6.67808533 C-78.90325812 6.65838102 -76.61575543 6.64669531 -74.328125 6.63671875 C-73.15384068 6.63060546 -73.15384068 6.63060546 -71.95583344 6.62436867 C-67.81105311 6.60351873 -63.66630578 6.58921318 -59.52148438 6.57983398 C-55.24988263 6.56878027 -50.97880334 6.53438975 -46.70738602 6.49466228 C-43.41472434 6.46845973 -40.12218639 6.46013888 -36.82942963 6.45655251 C-35.25542427 6.45169481 -33.68142413 6.44010409 -32.10752106 6.42151451 C-29.89841369 6.39704721 -27.69064796 6.39810115 -25.48144531 6.4050293 C-24.22696594 6.39916306 -22.97248657 6.39329681 -21.67999268 6.38725281 C-15.99291868 7.16752288 -12.3120968 9.3835194 -8.6875 13.9375 C-6.27560384 18.63813166 -6.79047126 23.73626688 -7.125 28.875 C-5.145 29.37 -5.145 29.37 -3.125 29.875 C-2.795 23.935 -2.465 17.995 -2.125 11.875 C-3.445 11.215 -4.765 10.555 -6.125 9.875 C-7.125 8.875 -7.125 8.875 -7.4375 6.5625 C-7.125 3.875 -7.125 3.875 -5.5 1.5 C-3.125 -0.125 -3.125 -0.125 0 0 Z M-98.125 14.875 C-99.28145218 17.18790436 -99.26936978 18.56244105 -99.30200195 21.13769531 C-99.31483719 22.01911194 -99.32767242 22.90052856 -99.34089661 23.80865479 C-99.34828354 24.76382996 -99.35567047 25.71900513 -99.36328125 26.703125 C-99.371353 27.68488708 -99.37942474 28.66664917 -99.38774109 29.67816162 C-99.40158792 31.75954418 -99.41230739 33.8409495 -99.42016602 35.92236328 C-99.43735615 39.09842298 -99.48123456 42.27343574 -99.52539062 45.44921875 C-99.5355195 47.47134651 -99.54403499 49.49348312 -99.55078125 51.515625 C-99.56828934 52.46270325 -99.58579742 53.40978149 -99.60383606 54.38555908 C-99.58540572 60.01769272 -99.11679876 63.55743327 -95.125 67.875 C-90.63940277 70.58286062 -87.3061436 71.25295258 -82.09741211 71.26318359 C-81.08402016 71.27106903 -81.08402016 71.27106903 -80.05015564 71.27911377 C-77.83397785 71.29223563 -75.61852786 71.28360516 -73.40234375 71.2734375 C-71.85347863 71.27546026 -70.30461444 71.27837339 -68.75575256 71.28213501 C-65.51700735 71.28654755 -62.2785111 71.28016116 -59.03979492 71.26611328 C-54.89479008 71.24900746 -50.75036746 71.25887783 -46.60538387 71.27683067 C-43.40971002 71.28768538 -40.21417361 71.28421473 -37.01849556 71.2764473 C-35.49032077 71.27445069 -33.96213337 71.2768856 -32.43397331 71.28388596 C-30.29671156 71.29153014 -28.16038564 71.27985683 -26.02319336 71.26318359 C-24.80885117 71.26079681 -23.59450897 71.25841003 -22.34336853 71.25595093 C-16.98530432 70.62172911 -13.61280103 67.86105831 -10.125 63.875 C-9.21728793 61.1518638 -8.98538255 59.48930833 -8.94799805 56.68237305 C-8.93516281 55.84107346 -8.92232758 54.99977386 -8.90910339 54.13298035 C-8.90171646 53.22671402 -8.89432953 52.32044769 -8.88671875 51.38671875 C-8.87461113 49.98278618 -8.87461113 49.98278618 -8.86225891 48.55049133 C-8.84842898 46.56924283 -8.83770195 44.5879706 -8.82983398 42.60668945 C-8.81262434 39.58433655 -8.76872888 36.56307861 -8.72460938 33.54101562 C-8.71448174 31.61459136 -8.70596586 29.68815782 -8.69921875 27.76171875 C-8.67295662 26.4114283 -8.67295662 26.4114283 -8.64616394 25.03385925 C-8.66527025 19.47773813 -9.35073415 16.23693566 -13.125 11.875 C-16.64149987 8.48229867 -19.46792893 8.48187615 -24.26098633 8.43920898 C-24.97209061 8.42913315 -25.68319489 8.41905731 -26.41584778 8.40867615 C-28.76306961 8.38021654 -31.10964769 8.37432041 -33.45703125 8.37109375 C-35.09364585 8.36144982 -36.73025787 8.35135713 -38.36686707 8.34083557 C-41.79745475 8.32287826 -45.22781591 8.31731397 -48.65844727 8.3190918 C-53.04360833 8.31939631 -57.42730819 8.27847455 -61.8121233 8.22677517 C-65.19319762 8.19332938 -68.5739221 8.18733674 -71.95514488 8.18892097 C-73.57103186 8.18539214 -75.18692897 8.17218555 -76.80265236 8.14892387 C-88.85595789 7.81891173 -88.85595789 7.81891173 -98.125 14.875 Z " fill="#18191A" transform="translate(196.125,81.125)"/>
<path d="M0 0 C2.875 0.875 2.875 0.875 4.875 2.875 C5 6.5 5 6.5 4.875 9.875 C3.555 10.535 2.235 11.195 0.875 11.875 C0.89071045 12.86830322 0.9064209 13.86160645 0.92260742 14.88500977 C0.97720199 18.59553818 1.01145656 22.30603158 1.03979492 26.0168457 C1.05481466 27.61814356 1.07523663 29.21940075 1.10131836 30.82055664 C1.13800438 33.13177571 1.15479435 35.44244756 1.16796875 37.75390625 C1.18345261 38.46148575 1.19893646 39.16906525 1.21488953 39.89808655 C1.21659972 45.03167076 0.18479326 48.39334826 -2.125 52.875 C-3.115 53.865 -3.115 53.865 -4.125 54.875 C-5.115 54.875 -6.105 54.875 -7.125 54.875 C-7.08375 56.07125 -7.0425 57.2675 -7 58.5 C-7.01354746 62.32038408 -7.45893255 65.37625834 -9.125 68.875 C-10.9375 70.0625 -10.9375 70.0625 -13.125 70.875 C-13.84872803 71.37875153 -14.57245605 71.88250305 -15.31811523 72.40151978 C-18.82824991 74.24417256 -21.26671704 74.25564744 -25.22265625 74.26318359 C-25.917612 74.26844055 -26.61256775 74.27369751 -27.32858276 74.27911377 C-29.6151203 74.2922673 -31.90095595 74.28359272 -34.1875 74.2734375 C-35.78263482 74.27545958 -37.37776873 74.27837214 -38.97290039 74.28213501 C-42.31177596 74.28655205 -45.65041033 74.28014745 -48.98925781 74.26611328 C-53.26320089 74.24902158 -57.53657875 74.25886611 -61.8105011 74.27683067 C-65.10311114 74.28768538 -68.39558778 74.28421447 -71.6882019 74.2764473 C-73.26382515 74.27444995 -74.83946061 74.27688821 -76.41506958 74.28388596 C-78.61948605 74.29152847 -80.82299468 74.27985828 -83.02734375 74.26318359 C-84.28023193 74.26079681 -85.53312012 74.25841003 -86.82397461 74.25595093 C-90.3543935 73.84852711 -92.264061 72.928105 -95.125 70.875 C-94.135 70.38 -94.135 70.38 -93.125 69.875 C-92.465 70.205 -91.805 70.535 -91.125 70.875 C-88.79732559 70.97750367 -86.46663909 71.01345362 -84.13671875 71.02026367 C-83.41787506 71.02362228 -82.69903137 71.0269809 -81.95840454 71.03044128 C-79.57641891 71.03995945 -77.19450348 71.0418947 -74.8125 71.04296875 C-73.16105113 71.04618028 -71.50960256 71.04954427 -69.8581543 71.05305481 C-66.3946873 71.05904793 -62.93124526 71.06089448 -59.46777344 71.06030273 C-55.02206463 71.060201 -50.57651512 71.07386425 -46.13084412 71.09107494 C-42.72000386 71.10217263 -39.30920242 71.10422265 -35.89834595 71.10369301 C-34.25883433 71.10487608 -32.6193218 71.10931604 -30.97982788 71.11702538 C-28.69086411 71.12678226 -26.40225021 71.12396471 -24.11328125 71.11791992 C-22.80915283 71.11934494 -21.50502441 71.12076996 -20.16137695 71.12223816 C-17.01417523 71.19576708 -17.01417523 71.19576708 -15.125 68.875 C-14.465 68.215 -13.805 67.555 -13.125 66.875 C-8.24764587 59.5589688 -8.7483015 49.76467239 -8.5 41.25 C-8.46132812 40.15042969 -8.42265625 39.05085938 -8.3828125 37.91796875 C-8.28956612 35.23713541 -8.20376733 32.5562911 -8.125 29.875 C-6.1875 29.3125 -6.1875 29.3125 -4.125 28.875 C-3.795 29.205 -3.465 29.535 -3.125 29.875 C-2.795 23.935 -2.465 17.995 -2.125 11.875 C-3.445 11.215 -4.765 10.555 -6.125 9.875 C-7.125 8.875 -7.125 8.875 -7.4375 6.5625 C-7.125 3.875 -7.125 3.875 -5.5 1.5 C-3.125 -0.125 -3.125 -0.125 0 0 Z " fill="#696B6D" transform="translate(196.125,81.125)"/>
<path d="M0 0 C1.98 0 3.96 0 6 0 C6 3.3 6 6.6 6 10 C7.32 9.34 8.64 8.68 10 8 C14.46309664 7.69355498 17.97372068 8.22403271 21.5625 10.9375 C23.62250685 15.32621025 23.93021097 19.23950854 23 24 C20.80977082 26.82424288 19.16982793 28.41508603 16 30 C11.32818984 30.41527201 8.82491487 29.69993991 5 27 C5 27.66 5 28.32 5 29 C3.35 29 1.7 29 0 29 C0 19.43 0 9.86 0 0 Z " fill="#101B28" transform="translate(70,156)"/>
<path d="M0 0 C1.32 0 2.64 0 4 0 C4 0.66 4 1.32 4 2 C4.680625 1.649375 5.36125 1.29875 6.0625 0.9375 C10.23392138 -0.39380469 14.06958735 0.03479368 18 2 C18.5775 1.690625 19.155 1.38125 19.75 1.0625 C22.73528013 -0.34721562 24.73244716 -0.4084441 28 0 C30.171875 1.4765625 30.171875 1.4765625 32 4 C32.48575787 6.93317288 32.3777451 9.78729633 32.25 12.75 C32.23195312 13.54277344 32.21390625 14.33554688 32.1953125 15.15234375 C32.14833082 17.10208348 32.07659044 19.05119878 32 21 C30.35 21 28.7 21 27 21 C26.93941406 20.08476562 26.87882812 19.16953125 26.81640625 18.2265625 C26.73261719 17.03804687 26.64882812 15.84953125 26.5625 14.625 C26.48128906 13.44164062 26.40007812 12.25828125 26.31640625 11.0390625 C26.18915064 8.08481099 26.18915064 8.08481099 25 6 C23.35 6.33 21.7 6.66 20 7 C19.67 11.62 19.34 16.24 19 21 C17.02 21 15.04 21 13 21 C12.67 16.05 12.34 11.1 12 6 C10.35 6 8.7 6 7 6 C6.67 10.95 6.34 15.9 6 21 C4.02 21 2.04 21 0 21 C0 14.07 0 7.14 0 0 Z " fill="#08131F" transform="translate(110,164)"/>
<path d="M0 0 C1.24501785 -0.00960754 2.49003571 -0.01921509 3.77278137 -0.02911377 C5.13847674 -0.03396208 6.50417423 -0.03824083 7.86987305 -0.04199219 C9.26751203 -0.04774443 10.66515098 -0.05350215 12.06278992 -0.05926514 C14.99580249 -0.0697762 17.92878765 -0.07561786 20.86181641 -0.07910156 C24.61454332 -0.08458029 28.3669063 -0.10859411 32.11951923 -0.13707352 C35.00806219 -0.15572843 37.89651809 -0.16090705 40.7851162 -0.16243744 C42.16817396 -0.16545912 43.55123036 -0.17347137 44.9342289 -0.18662262 C46.87274588 -0.20373737 48.81141302 -0.19995021 50.75 -0.1953125 C52.40307915 -0.20078094 52.40307915 -0.20078094 54.08955383 -0.20635986 C57.49487984 0.213649 59.33359637 1.1184908 62.0690918 3.16113281 C64.6236215 6.99292737 64.37493456 10.14781668 64.36987305 14.59082031 C64.37415817 15.41816681 64.3784433 16.24551331 64.38285828 17.09793091 C64.38859994 18.84799281 64.38910304 20.59807858 64.38476562 22.34814453 C64.38161168 25.0192974 64.40504503 27.68933613 64.43041992 30.36035156 C64.43269361 32.06217308 64.43339609 33.76399758 64.43237305 35.46582031 C64.44158279 36.26180634 64.45079254 37.05779236 64.46028137 37.87789917 C64.4222976 42.45591062 64.02550195 45.43577673 61.0690918 49.16113281 C58.27995721 50.5557001 55.96744309 50.31156067 52.84692383 50.33813477 C51.53861603 50.35097 50.23030823 50.36380524 48.88235474 50.37702942 C47.44720843 50.38519608 46.01205785 50.39263996 44.5769043 50.39941406 C43.49492075 50.40552735 43.49492075 50.40552735 42.39107895 50.41176414 C38.57395463 50.43262298 34.75686625 50.44692604 30.93969727 50.45629883 C26.99620637 50.4673692 23.05327885 50.50177601 19.10998726 50.54147053 C16.07822618 50.56760736 13.04660001 50.57598795 10.01473618 50.57958031 C8.56105617 50.58445314 7.10738246 50.59608708 5.65381241 50.6146183 C3.61936256 50.63894484 1.58463907 50.63563134 -0.44995117 50.63110352 C-1.60751923 50.63696976 -2.76508728 50.642836 -3.95773315 50.64888 C-7.56389991 50.05729099 -8.69580604 48.98714131 -10.9309082 46.16113281 C-12.54745741 42.92803439 -12.13658405 39.38317924 -12.16918945 35.82910156 C-12.1772612 35.00034012 -12.18533295 34.17157867 -12.19364929 33.31770325 C-12.20749041 31.56167697 -12.21821245 29.80562378 -12.22607422 28.04956055 C-12.24327471 25.36943272 -12.28715746 22.69054254 -12.33129883 20.01074219 C-12.341427 18.30437105 -12.34994271 16.59798942 -12.35668945 14.89160156 C-12.37419754 14.09247849 -12.39170563 13.29335541 -12.40974426 12.47001648 C-12.39434501 8.50143605 -12.21806422 6.61160904 -10.02929688 3.17797852 C-6.64811036 -0.07181576 -4.60121496 0.02856968 0 0 Z M-9.9309082 6.16113281 C-10.52343363 8.09066848 -10.52343363 8.09066848 -10.44848633 10.13183594 C-10.46109497 10.89943237 -10.47370361 11.66702881 -10.48669434 12.45788574 C-10.47859741 13.27776978 -10.47050049 14.09765381 -10.4621582 14.94238281 C-10.46598511 15.79288208 -10.46981201 16.64338135 -10.47375488 17.51965332 C-10.47647279 19.31503485 -10.46912003 21.11045606 -10.45239258 22.90576172 C-10.43097988 25.65194074 -10.45219691 28.39550379 -10.4777832 31.14160156 C-10.4751399 32.88770108 -10.47001488 34.63379897 -10.4621582 36.37988281 C-10.47025513 37.19976685 -10.47835205 38.01965088 -10.48669434 38.86437988 C-10.47408569 39.63197632 -10.46147705 40.39957275 -10.44848633 41.19042969 C-10.44530396 41.86231323 -10.44212158 42.53419678 -10.43884277 43.22644043 C-9.66744555 46.16464629 -8.32977571 47.34079419 -5.9309082 49.16113281 C-3.02841699 49.77174084 -3.02841699 49.77174084 0.22705078 49.69458008 C1.47191757 49.71041641 2.71678436 49.72625275 3.99937439 49.74256897 C5.35464859 49.73872721 6.70991985 49.73368801 8.06518555 49.72753906 C9.45997025 49.73277597 10.85475139 49.7390527 12.24952698 49.74632263 C15.17075277 49.75672358 18.09149137 49.75217107 21.01269531 49.73754883 C24.75008152 49.72036942 28.4859291 49.7438443 32.22314358 49.77903843 C35.10319642 49.80103736 37.98288258 49.79956506 40.86299324 49.79127312 C42.24046579 49.79045476 43.61796558 49.79729616 44.99535942 49.81204414 C46.92408443 49.82952851 48.85303128 49.81160518 50.78173828 49.79223633 C52.42576881 49.79079369 52.42576881 49.79079369 54.10301208 49.7893219 C58.07375123 48.94835495 59.57926598 47.30470783 62.0690918 44.16113281 C62.79466524 42.18189152 62.79466524 42.18189152 62.70019531 40.16870117 C62.71899498 39.04745094 62.71899498 39.04745094 62.73817444 37.90354919 C62.72491623 37.11070023 62.71165802 36.31785126 62.69799805 35.50097656 C62.70041 34.67408829 62.70282196 33.84720001 62.70530701 32.99525452 C62.70433035 31.25289091 62.69097991 29.51049558 62.66601562 27.76831055 C62.63165143 25.10325755 62.64537719 22.44151241 62.66479492 19.77636719 C62.65789749 18.08038956 62.64822603 16.38442046 62.63549805 14.68847656 C62.64045792 13.89360336 62.64541779 13.09873016 62.65052795 12.2797699 C62.57915738 8.92517125 62.45991297 6.687014 60.42735291 3.95204163 C57.37784326 1.63618539 55.61057739 1.65441094 51.8034668 1.64355469 C50.53535156 1.63094604 49.26723633 1.6183374 47.96069336 1.60534668 C46.58015385 1.61250651 45.19961941 1.62071051 43.8190918 1.62988281 C42.39949274 1.62718719 40.97989548 1.62330418 39.56030273 1.61828613 C36.58779286 1.61239423 33.61576438 1.62094327 30.64331055 1.63964844 C26.83650393 1.66243881 23.03082531 1.64931393 19.22406006 1.62535858 C16.29345223 1.61089167 13.36311105 1.61551046 10.43249512 1.62586975 C9.02909206 1.62853462 7.62566465 1.62527564 6.22229004 1.61595154 C4.25977045 1.60577341 2.29716578 1.62404241 0.3347168 1.64355469 C-1.33929199 1.64832825 -1.33929199 1.64832825 -3.04711914 1.65319824 C-6.61219587 2.28113103 -7.79498976 3.27658616 -9.9309082 6.16113281 Z " fill="#1E1F20" transform="translate(115.930908203125,96.8388671875)"/>
<path d="M0 0 C0.66 0 1.32 0 2 0 C3.85382152 3.96819447 5.70517033 7.93752988 7.55419922 11.90795898 C8.18404768 13.25951558 8.8145802 14.6107536 9.44580078 15.96166992 C10.35107008 17.89940098 11.25390244 19.83825074 12.15625 21.77734375 C12.97319336 23.52905884 12.97319336 23.52905884 13.80664062 25.31616211 C15 28 15 28 15 29 C12.69 29 10.38 29 8 29 C7.67 27.68 7.34 26.36 7 25 C3.04 25 -0.92 25 -5 25 C-5.33 26.32 -5.66 27.64 -6 29 C-8.31 29 -10.62 29 -13 29 C-11.20656316 22.98430044 -8.5463131 17.38113311 -5.9375 11.6875 C-5.47794922 10.67365234 -5.01839844 9.65980469 -4.54492188 8.61523438 C-1.13127309 1.13127309 -1.13127309 1.13127309 0 0 Z " fill="#0A1522" transform="translate(52,156)"/>
<path d="M0 0 C0.33 0 0.66 0 1 0 C1.01458252 1.00377686 1.02916504 2.00755371 1.04418945 3.04174805 C1.10232052 6.7787575 1.17955165 10.51517369 1.26245117 14.25170898 C1.2956311 15.86651963 1.32368458 17.48144431 1.34643555 19.09643555 C1.38011025 21.42285592 1.43242963 23.74823783 1.48828125 26.07421875 C1.49467117 26.79212082 1.5010611 27.51002289 1.50764465 28.24967957 C1.63578899 32.65401766 2.13805657 35.59592131 5 39 C9.49225587 41.71071775 12.81312756 42.37208962 18.02758789 42.35644531 C19.04097984 42.35951187 19.04097984 42.35951187 20.07484436 42.36264038 C22.29106401 42.36562983 24.50652595 42.34722741 26.72265625 42.328125 C28.27151811 42.32506394 29.82038273 42.32319046 31.36924744 42.32244873 C34.60800796 42.31785718 37.84651826 42.3034754 41.08520508 42.28125 C45.23004509 42.25294507 49.37468864 42.24203449 53.51961613 42.2375679 C56.7152654 42.2334051 59.91087531 42.22358081 63.10650444 42.21169281 C64.63467535 42.20600919 66.16284998 42.20124426 67.69102669 42.19742584 C69.82802034 42.19052677 71.96486206 42.17687793 74.10180664 42.16113281 C75.92331993 42.15089081 75.92331993 42.15089081 77.78163147 42.14044189 C80.6438821 42.01554013 83.21845367 41.65870037 86 41 C84.94584656 42.47871399 84.94584656 42.47871399 83 44 C79.82991028 44.36076355 79.82991028 44.36076355 75.86645508 44.34057617 C74.78315163 44.34123329 74.78315163 44.34123329 73.67796326 44.34190369 C71.29154395 44.33981414 68.90582777 44.31647613 66.51953125 44.29296875 C64.86472457 44.28737336 63.20991292 44.283103 61.55509949 44.28010559 C57.20006586 44.26865224 52.84533249 44.23918098 48.49041748 44.20599365 C44.04638735 44.17530326 39.60230869 44.16160247 35.15820312 44.14648438 C26.43866431 44.11431162 17.71936951 44.06310952 9 44 C10.88222953 45.88222953 14.12187191 45.157405 16.62768555 45.17700195 C17.66683357 45.18685875 17.66683357 45.18685875 18.72697449 45.19691467 C21.03022358 45.21669788 23.33340719 45.22832382 25.63671875 45.23828125 C26.81562652 45.24439454 26.81562652 45.24439454 28.0183506 45.25063133 C32.18142054 45.27151756 36.3444573 45.28580585 40.50756836 45.29516602 C44.80398736 45.30621132 49.09988568 45.34058161 53.39612103 45.38033772 C56.70161382 45.40652052 60.0069832 45.4148595 63.31257057 45.41844749 C64.89577548 45.42331241 66.47897491 45.43492379 68.06207848 45.45348549 C70.28358085 45.47790447 72.50374555 45.47690726 74.7253418 45.4699707 C75.98807419 45.47583694 77.25080658 45.48170319 78.55180359 45.48774719 C82.62343828 44.91181469 84.75939592 43.46731661 88 41 C88.66 40.67 89.32 40.34 90 40 C88.60440273 43.3726934 87.1078412 45.08045102 84 47 C80.48121162 48.16927975 77.10288001 48.13975599 73.41479492 48.16113281 C72.43592064 48.16858017 72.43592064 48.16858017 71.43727112 48.17617798 C69.2849928 48.19074538 67.13278821 48.19759273 64.98046875 48.203125 C63.47837829 48.2088812 61.97628784 48.21463887 60.47419739 48.22039795 C57.32613789 48.23089272 54.17810382 48.23674525 51.0300293 48.24023438 C47.00852699 48.24571395 42.98736413 48.26973668 38.96596813 48.29820633 C35.86288999 48.31688838 32.75989269 48.32204127 29.65676308 48.32357025 C28.17488056 48.32658509 26.69299906 48.33457393 25.2111721 48.34775543 C23.13165298 48.36493242 21.05295118 48.36290798 18.97338867 48.35644531 C17.79298508 48.36009094 16.61258148 48.36373657 15.39640808 48.36749268 C10.8216967 47.87250712 6.84419167 46.55060959 3.2578125 43.53515625 C-1.16308452 37.78799012 -1.11700957 34.0205744 -1 27 C-1.598125 26.9175 -2.19625 26.835 -2.8125 26.75 C-5.64685403 25.77822147 -6.4454043 24.51696446 -8 22 C-8.96070434 19.11788698 -9.10581883 17.30149956 -9.0625 14.3125 C-9.05347656 13.50425781 -9.04445313 12.69601563 -9.03515625 11.86328125 C-9.02355469 11.24839844 -9.01195313 10.63351563 -9 10 C-8.34 9.67 -7.68 9.34 -7 9 C-7.061875 10.175625 -7.12375 11.35125 -7.1875 12.5625 C-7.17943106 17.10531379 -6.22153204 20.03297849 -4 24 C-2.68 24.66 -1.36 25.32 0 26 C0 17.42 0 8.84 0 0 Z " fill="#010202" transform="translate(96,109)"/>
<path d="M0 0 C2.125 1.625 2.125 1.625 3.125 3.625 C3.19681821 6.34260108 3.21799506 9.03359388 3.1875 11.75 C3.18298828 12.50410156 3.17847656 13.25820312 3.17382812 14.03515625 C3.16203499 15.89847127 3.14409942 17.76174555 3.125 19.625 C1.805 19.625 0.485 19.625 -0.875 19.625 C-0.875 18.965 -0.875 18.305 -0.875 17.625 C-1.41125 18.12 -1.9475 18.615 -2.5 19.125 C-5.57610743 21.06780469 -7.29389189 21.14724493 -10.875 20.625 C-13.25 19 -13.25 19 -14.875 16.625 C-15.375 13.5625 -15.375 13.5625 -14.875 10.625 C-13.375 8.75 -13.375 8.75 -10.875 7.625 C-8.15430412 7.39135245 -5.61633849 7.48793308 -2.875 7.625 C-3.205 6.635 -3.535 5.645 -3.875 4.625 C-6.845 4.625 -9.815 4.625 -12.875 4.625 C-13.205 2.975 -13.535 1.325 -13.875 -0.375 C-9.09979532 -1.9030655 -4.56636522 -2.1839138 0 0 Z " fill="#0A1420" transform="translate(161.875,165.375)"/>
<path d="M0 0 C1.5625 1.125 1.5625 1.125 2.5625 3.125 C2.63444869 6.00870333 2.65541708 8.86739664 2.625 11.75 C2.62048828 12.55179688 2.61597656 13.35359375 2.61132812 14.1796875 C2.59953168 16.16149006 2.58159605 18.14325433 2.5625 20.125 C1.77746094 19.939375 0.99242187 19.75375 0.18359375 19.5625 C-2.40236862 18.86204273 -2.40236862 18.86204273 -4.375 20.125 C-7.399117 21.59123855 -9.2720188 21.06790929 -12.4375 20.125 C-14.375 18.4375 -14.375 18.4375 -15.4375 16.125 C-15.3125 13 -15.3125 13 -14.4375 10.125 C-11.23369983 7.98913322 -10.41810033 7.89367825 -6.75 8 C-5.53763672 8.02707031 -5.53763672 8.02707031 -4.30078125 8.0546875 C-3.37845703 8.08949219 -3.37845703 8.08949219 -2.4375 8.125 C-2.7675 6.805 -3.0975 5.485 -3.4375 4.125 C-6.7375 4.125 -10.0375 4.125 -13.4375 4.125 C-13.7675 2.805 -14.0975 1.485 -14.4375 0.125 C-9.8185614 -1.4146462 -4.58604062 -1.64627099 0 0 Z " fill="#0C1621" transform="translate(244.4375,164.875)"/>
<path d="M0 0 C2.65497649 1.98542703 4.69576909 3.54696795 5.40014648 6.91113281 C5.49156326 9.06563131 5.4375384 11.1599158 5.3125 13.3125 C5.28994141 14.05306641 5.26738281 14.79363281 5.24414062 15.55664062 C5.1855815 17.37197357 5.09590886 19.18625681 5 21 C3.02 21 1.04 21 -1 21 C-1.06058594 20.00097656 -1.12117187 19.00195312 -1.18359375 17.97265625 C-1.30927734 16.03712891 -1.30927734 16.03712891 -1.4375 14.0625 C-1.51871094 12.77472656 -1.59992188 11.48695313 -1.68359375 10.16015625 C-1.64919188 7.13976043 -1.64919188 7.13976043 -3 6 C-4.66617115 5.95936168 -6.33388095 5.957279 -8 6 C-9.41634833 8.83269666 -9.3463005 11.47466438 -9.5625 14.625 C-9.64628906 15.81351563 -9.73007813 17.00203125 -9.81640625 18.2265625 C-9.87699219 19.14179688 -9.93757812 20.05703125 -10 21 C-11.65 21 -13.3 21 -15 21 C-15 14.4 -15 7.8 -15 1 C-12.69 1 -10.38 1 -8 1 C-5.11138291 -0.44430855 -3.20352299 -0.37688506 0 0 Z " fill="#08131E" transform="translate(186,164)"/>
<path d="M0 0 C1.65 0 3.3 0 5 0 C5 2.31 5 4.62 5 7 C6.65 7 8.3 7 10 7 C10 8.65 10 10.3 10 12 C8.35 12 6.7 12 5 12 C5.33 15.63 5.66 19.26 6 23 C7.32 23.33 8.64 23.66 10 24 C10 25.32 10 26.64 10 28 C6.90830418 28.97167583 5.40520969 29.1573167 2.34375 27.96875 C0 26 0 26 -0.48828125 22.64453125 C-0.43027344 21.37996094 -0.37226563 20.11539063 -0.3125 18.8125 C-0.26738281 17.54019531 -0.22226563 16.26789063 -0.17578125 14.95703125 C-0.11777344 13.98121094 -0.05976563 13.00539062 0 12 C-0.99 12 -1.98 12 -3 12 C-3 10.35 -3 8.7 -3 7 C-2.01 7 -1.02 7 0 7 C0 4.69 0 2.38 0 0 Z " fill="#0B1623" transform="translate(198,157)"/>
<path d="M0 0 C1.32 0 2.64 0 4 0 C6.125 2.4375 6.125 2.4375 8 5 C10.85324437 6.42662219 12.83454549 6.31033868 16 6 C18.69990662 4.20006226 20.5418865 2.916227 22 0 C24.475 0.495 24.475 0.495 27 1 C25.60506348 5.43843439 23.48101799 7.9434964 20 11 C15.6299655 12.45667817 11.38730204 12.86982886 7.02734375 11.28125 C3.12416751 9.2260744 0.6782836 7.09081628 -1 3 C-0.67 2.01 -0.34 1.02 0 0 Z " fill="#7B7C7E" transform="translate(129,129)"/>
<path d="M0 0 C2.09187012 2.09187012 3.33441099 3.37230628 4.1875 6.1875 C3.8125 8.9375 3.8125 8.9375 3.1875 11.1875 C1.8675 11.1875 0.5475 11.1875 -0.8125 11.1875 C-1.18375 10.053125 -1.555 8.91875 -1.9375 7.75 C-2.70065312 5.8199915 -2.70065312 5.8199915 -3.8125 4.1875 C-6.70322953 2.85841833 -6.70322953 2.85841833 -9.8125 3.1875 C-12.79623624 4.67936812 -13.65241588 5.84331915 -15.0625 8.875 C-15.31 9.638125 -15.5575 10.40125 -15.8125 11.1875 C-17.1325 10.8575 -18.4525 10.5275 -19.8125 10.1875 C-19.56145913 5.91980522 -19.21598094 3.68912495 -16.5 0.3125 C-11.22134633 -3.86131918 -5.75739544 -3.7103215 0 0 Z " fill="#0F0F10" transform="translate(130.8125,111.8125)"/>
<path d="M0 0 C4.20822928 2.64962584 5.75077172 3.9140768 6.875 8.8125 C6.91625 9.864375 6.9575 10.91625 7 12 C5.68 12.33 4.36 12.66 3 13 C2.46375 11.865625 1.9275 10.73125 1.375 9.5625 C-0.29860957 6.64258543 -0.72320605 6.10956427 -4 4.8125 C-7.06705666 4.72865446 -7.06705666 4.72865446 -9.25 6.6875 C-10.80752939 8.74566383 -11.98600279 10.6340065 -13 13 C-14.32 12.67 -15.64 12.34 -17 12 C-16.76099616 5.90540206 -16.76099616 5.90540206 -14.703125 3.45703125 C-9.67478749 -0.78718432 -6.34836976 -1.50639283 0 0 Z " fill="#060607" transform="translate(166,110)"/>
<path d="M0 0 C1.32 0 2.64 0 4 0 C4 0.66 4 1.32 4 2 C4.556875 1.67 5.11375 1.34 5.6875 1 C8.30284522 -0.1309601 10.1806646 -0.15662974 13 0 C12.8125 2.375 12.8125 2.375 12 5 C10.35 5.66 8.7 6.32 7 7 C6.67 11.62 6.34 16.24 6 21 C4.02 21 2.04 21 0 21 C0 14.07 0 7.14 0 0 Z " fill="#141D2A" transform="translate(213,164)"/>
<path d="M0 0 C0.66 0 1.32 0 2 0 C2.01458252 1.16571533 2.02916504 2.33143066 2.04418945 3.5324707 C2.10213117 7.85456122 2.17936394 12.17612847 2.26245117 16.49780273 C2.29572002 18.36881014 2.32374585 20.23991838 2.34643555 22.11108398 C2.37994588 24.79975383 2.43225865 27.48749798 2.48828125 30.17578125 C2.49467117 31.01337479 2.5010611 31.85096832 2.50764465 32.71394348 C2.5241663 36.93337166 2.5241663 36.93337166 4.14428711 40.71801758 C6.82165883 42.5676267 8.88664309 42.4000663 12.1237793 42.43237305 C13.38486008 42.45216721 14.64594086 42.47196136 15.94523621 42.49235535 C17.32156221 42.49912512 18.69788983 42.50557198 20.07421875 42.51171875 C21.48242261 42.52856379 22.89061141 42.5467138 24.29878235 42.56611633 C28.00260718 42.61364215 31.706371 42.64343444 35.41040039 42.66955566 C39.19104058 42.69934842 42.97147045 42.74588307 46.75195312 42.79101562 C54.16786445 42.87707794 61.58379102 42.94440981 69 43 C69 43.33 69 43.66 69 44 C60.72457704 44.09270357 52.44937122 44.16376616 44.17355728 44.20724869 C40.33068748 44.22811884 36.48817307 44.25642506 32.64550781 44.30175781 C28.93668885 44.34523745 25.22821158 44.36914142 21.51915741 44.37950897 C20.10453665 44.38689667 18.68993448 44.40132343 17.27545929 44.42292023 C15.29352577 44.45197615 13.311248 44.45363408 11.32910156 44.45410156 C10.20103088 44.46298401 9.07296021 44.47186646 7.91070557 44.48101807 C4.34675025 43.8920451 3.21642889 42.7877613 1 40 C-0.63945963 36.72108075 -0.12030178 33.09386466 -0.09765625 29.4921875 C-0.0962413 28.65156769 -0.09482635 27.81094788 -0.09336853 26.94485474 C-0.08776237 24.25486725 -0.07520886 21.56496241 -0.0625 18.875 C-0.05748579 17.05338662 -0.05292275 15.23177193 -0.04882812 13.41015625 C-0.03779094 8.94007223 -0.0205222 4.47005014 0 0 Z " fill="#151516" transform="translate(104,103)"/>
<path d="M0 0 C2 0.375 2 0.375 4 1 C6.10610934 1.08084521 6.10610934 1.08084521 8.5 0.375 C9.325 0.25125 10.15 0.1275 11 0 C11.66 0.66 12.32 1.32 13 2 C14.32 2 15.64 2 17 2 C16.67 4.31 16.34 6.62 16 9 C15.01 8.67 14.02 8.34 13 8 C10.99759451 8.31856451 8.99788438 8.65421232 7 9 C0.68501529 9.42813456 0.68501529 9.42813456 -2 7.75 C-3 6 -3 6 -2.8125 3.9375 C-2 2 -2 2 0 0 Z " fill="#ADB0B3" transform="translate(163,196)"/>
<path d="M0 0 C1.32 0 2.64 0 4 0 C4 0.66 4 1.32 4 2 C5.65 1.67 7.3 1.34 9 1 C8.67 1.66 8.34 2.32 8 3 C9.32 3.66 10.64 4.32 12 5 C10.35 5.33 8.7 5.66 7 6 C6.67 10.95 6.34 15.9 6 21 C4.02 21 2.04 21 0 21 C0 14.07 0 7.14 0 0 Z " fill="#131C28" transform="translate(110,164)"/>
<path d="M0 0 C1.98 0 3.96 0 6 0 C6 6.93 6 13.86 6 21 C4.02 21 2.04 21 0 21 C0 14.07 0 7.14 0 0 Z " fill="#1B202A" transform="translate(98,164)"/>
<path d="M0 0 C0 7.92 0 15.84 0 24 C-4.02893443 21.98553278 -4.97630589 21.15503133 -6.51953125 17.0625 C-7.57061838 12.55051623 -7.27114465 8.09567091 -4.84375 4.09375 C-1.52240566 0 -1.52240566 0 0 0 Z " fill="#EFF2F3" transform="translate(95,111)"/>
<path d="M0 0 C2.33746522 0.30300475 4.67085177 0.63858045 7 1 C8.11375 0.690625 8.11375 0.690625 9.25 0.375 C11 0 11 0 12.8125 1.125 C14 3 14 3 13.6875 5.6875 C13.460625 6.450625 13.23375 7.21375 13 8 C9.71303767 8.79953138 8.28976808 9.09658936 5 8 C4.175 8.20625 3.35 8.4125 2.5 8.625 C0 9 0 9 -1.875 7.8125 C-3 6 -3 6 -2.8125 3.9375 C-2 2 -2 2 0 0 Z " fill="#B8BBBE" transform="translate(81,196)"/>
<path d="M0 0 C1.9375 1.625 1.9375 1.625 3 4 C2.875 7.125 2.875 7.125 2 10 C-1 12 -1 12 -4.0625 11.75 C-7 11 -7 11 -9 9 C-9.33015665 5.89652746 -9.50531294 3.84218824 -7.875 1.125 C-5.08893958 -0.54663625 -3.18011138 -0.46376624 0 0 Z " fill="#EAEEF1" transform="translate(85,169)"/>
<path d="M0 0 C4 2 4 2 6 5 C6.58763388 9.93001927 6.61975017 14.52440436 4.6875 19.125 C3 21 3 21 0 22 C0 14.74 0 7.48 0 0 Z " fill="#F4F7F9" transform="translate(189,112)"/>
<path d="M0 0 C0.99 0.33 1.98 0.66 3 1 C3.07429915 6.32020022 3.12867247 11.64009669 3.16479492 16.96069336 C3.17985755 18.76966617 3.20031177 20.5786026 3.22631836 22.38745117 C3.2628132 24.99146515 3.27975157 27.5949952 3.29296875 30.19921875 C3.30845261 31.00461594 3.32393646 31.81001312 3.33988953 32.63981628 C3.34126125 37.24310719 3.01511629 40.27260854 0 44 C-2.1875 44.8125 -2.1875 44.8125 -4 45 C-4 44.34 -4 43.68 -4 43 C-3.34805664 42.48276367 -2.69611328 41.96552734 -2.02441406 41.43261719 C0.98322888 37.81851271 0.50371175 34.6378932 0.390625 30.078125 C0.38496521 29.21813904 0.37930542 28.35815308 0.37347412 27.47210693 C0.35111951 24.73083351 0.30092602 21.99087696 0.25 19.25 C0.22993376 17.38934182 0.21168321 15.52866311 0.1953125 13.66796875 C0.15125784 9.11147334 0.08223754 4.55595978 0 0 Z " fill="#343537" transform="translate(177,102)"/>
<path d="M0 0 C0.66 0.33 1.32 0.66 2 1 C1.44570312 1.39832031 0.89140625 1.79664062 0.3203125 2.20703125 C-0.40414062 2.73683594 -1.12859375 3.26664062 -1.875 3.8125 C-2.59429687 4.33457031 -3.31359375 4.85664062 -4.0546875 5.39453125 C-6.47040675 7.38822726 -7.83901142 9.09437695 -8.39428711 12.21801758 C-8.49108765 13.51195435 -8.49108765 13.51195435 -8.58984375 14.83203125 C-8.66315918 15.80994629 -8.73647461 16.78786133 -8.81201172 17.79541016 C-9.14218048 23.42371564 -9.36951553 29.0529862 -9.5625 34.6875 C-9.60568359 35.87794922 -9.64886719 37.06839844 -9.69335938 38.29492188 C-9.79823679 41.19653034 -9.90040196 44.09820635 -10 47 C-10.33 47 -10.66 47 -11 47 C-11.33 39.41 -11.66 31.82 -12 24 C-14.97 27.465 -14.97 27.465 -18 31 C-18.33 30.34 -18.66 29.68 -19 29 C-15.52692308 23.17019231 -15.52692308 23.17019231 -12.859375 22.30859375 C-12.24578125 22.20675781 -11.6321875 22.10492188 -11 22 C-11.04640625 21.3709375 -11.0928125 20.741875 -11.140625 20.09375 C-11.40690126 13.7791987 -10.68114217 9.22646806 -7 4 C-4.59998683 1.74544218 -3.14223877 1.04741292 0 0 Z " fill="#0E1113" transform="translate(106,88)"/>
<path d="M0 0 C-0.33 0.99 -0.66 1.98 -1 3 C-2.98 3.33 -4.96 3.66 -7 4 C-6.67 5.32 -6.34 6.64 -6 8 C-4.68 8.33 -3.36 8.66 -2 9 C-2 9.99 -2 10.98 -2 12 C-5.14809399 12.98940097 -6.62833259 13.14359877 -9.75 11.9375 C-12 10 -12 10 -13.0625 7.0625 C-13 4 -13 4 -11.625 1.625 C-7.81276394 -0.73495566 -4.37083252 -0.33621789 0 0 Z " fill="#08121D" transform="translate(242,173)"/>
<path d="M0 0 C0 0.66 0 1.32 0 2 C1.65 2 3.3 2 5 2 C4.67 3.65 4.34 5.3 4 7 C2.68 7.33 1.36 7.66 0 8 C0.99 9.32 1.98 10.64 3 12 C-2.625 12.25 -2.625 12.25 -6 10 C-6.4375 7.125 -6.4375 7.125 -6 4 C-2.84210526 0 -2.84210526 0 0 0 Z " fill="#182431" transform="translate(154,174)"/>
<path d="M0 0 C0.66 0.33 1.32 0.66 2 1 C1.67 8.26 1.34 15.52 1 23 C1.66 23 2.32 23 3 23 C3 23.66 3 24.32 3 25 C2.34 25 1.68 25 1 25 C1.061875 26.794375 1.061875 26.794375 1.125 28.625 C1.13851708 32.42329953 0.42009753 35.44975618 -1 39 C-3.475 39.495 -3.475 39.495 -6 40 C-6 39.01 -6 38.02 -6 37 C-5.52868652 36.53384277 -5.05737305 36.06768555 -4.57177734 35.58740234 C0.67824143 30.28519327 -0.57736351 18.31438199 -0.375 11.375 C-0.31699219 9.72564453 -0.31699219 9.72564453 -0.2578125 8.04296875 C-0.16456612 5.36213541 -0.07876733 2.6812911 0 0 Z " fill="#3F4143" transform="translate(188,111)"/>
<path d="M0 0 C1.66519519 0.34060811 3.33157466 0.67558396 5 1 C4.67 3.31 4.34 5.62 4 8 C-3.75 7.25 -3.75 7.25 -6 5 C-6.125 2.375 -6.125 2.375 -6 0 C-3.44211818 -1.27894091 -2.70140697 -0.77183056 0 0 Z " fill="#D6D9DC" transform="translate(175,197)"/>
<path d="M0 0 C1.2375 0.1546875 1.2375 0.1546875 2.5 0.3125 C4.5 3.3125 4.5 3.3125 4.25 5.375 C3.5 7.3125 3.5 7.3125 1.5 9.3125 C-1.125 8.9375 -1.125 8.9375 -3.5 8.3125 C-4.125 5.4375 -4.125 5.4375 -4.5 2.3125 C-2.5 0.3125 -2.5 0.3125 0 0 Z " fill="#E5E8EA" transform="translate(195.5,82.6875)"/>
<path d="M0 0 C2.475 0.495 2.475 0.495 5 1 C3.60506348 5.43843439 1.48101799 7.9434964 -2 11 C-5.89164348 12.29721449 -8.89429226 12.13033993 -13 12 C-13.66 11.67 -14.32 11.34 -15 11 C-14.67 10.34 -14.34 9.68 -14 9 C-13.00419922 9.06960937 -13.00419922 9.06960937 -11.98828125 9.140625 C-6.23364217 9.40393218 -6.23364217 9.40393218 -1 7.25 C0.81419017 5.20903605 2.00604367 3.53007066 3 1 C2.34 1 1.68 1 1 1 C0.566875 2.2065625 0.566875 2.2065625 0.125 3.4375 C-1 6 -1 6 -3 7 C-2.38722388 4.03824877 -1.74627478 2.61941217 0 0 Z " fill="#101112" transform="translate(151,129)"/>
<path d="M0 0 C3.63 0.33 7.26 0.66 11 1 C11 3.64 11 6.28 11 9 C10.34 8.67 9.68 8.34 9 8 C9 7.34 9 6.68 9 6 C8.34 6 7.68 6 7 6 C7 6.99 7 7.98 7 9 C4.69 9 2.38 9 0 9 C3 7 3 7 5 7 C5 5.35 5 3.7 5 2 C3.02 2 1.04 2 -1 2 C-0.67 1.34 -0.34 0.68 0 0 Z " fill="#83878B" transform="translate(118,196)"/>
<path d="M0 0 C0.99 0 1.98 0 3 0 C3 5.94 3 11.88 3 18 C2.01 18 1.02 18 0 18 C0 12.06 0 6.12 0 0 Z " fill="#0B1C2C" transform="translate(100,166)"/>
<path d="M0 0 C2.6875 2.4375 2.6875 2.4375 3.5625 6.1875 C3.60375 7.26 3.645 8.3325 3.6875 9.4375 C0.89999856 8.04374928 0.79483713 6.27505139 -0.3125 3.4375 C-2.30807113 1.0092978 -2.30807113 1.0092978 -6.25 1.125 C-8.81147159 1.19911129 -10.00071439 1.24003578 -12.1875 2.625 C-13.54389999 4.8103111 -14.4609919 7.01397695 -15.3125 9.4375 C-16 7.75 -16 7.75 -16.3125 5.4375 C-15.05989213 2.66857734 -13.9711299 0.91443889 -11.5 -0.875 C-7.05603338 -2.27167522 -4.2188049 -1.99000231 0 0 Z " fill="#CED1D3" transform="translate(167.3125,112.5625)"/>
<path d="M0 0 C2.88438838 1.31108563 4.5404593 2.35246537 6.375 4.9375 C7.10948624 7.3613046 6.84172676 8.64316506 6 11 C5.319375 9.576875 5.319375 9.576875 4.625 8.125 C3.19761746 4.99686321 3.19761746 4.99686321 1 3 C-2.00454494 2.66077718 -4.10330594 2.42525911 -7 3 C-9.46416134 5.20488259 -9.46416134 5.20488259 -11 8 C-11.66 8.99 -12.32 9.98 -13 11 C-12.875 7.75 -12.875 7.75 -12 4 C-8.13502921 0.49456138 -5.18666835 -0.77248252 0 0 Z " fill="#CED1D3" transform="translate(126,111)"/>
<path d="M0 0 C1.66611905 -0.042721 3.33382885 -0.04063832 5 0 C6 1 6 1 6.1875 3.4375 C6 6 6 6 4 8 C2.68 8 1.36 8 0 8 C0 5.36 0 2.72 0 0 Z " fill="#45474A" transform="translate(96,197)"/>
<path d="M0 0 C1.134375 0.020625 2.26875 0.04125 3.4375 0.0625 C3.4375 1.7125 3.4375 3.3625 3.4375 5.0625 C1.1275 5.3925 -1.1825 5.7225 -3.5625 6.0625 C-3.94468767 4.40635343 -4.27645102 2.73792976 -4.5625 1.0625 C-3.5625 0.0625 -3.5625 0.0625 0 0 Z " fill="#D8DBDE" transform="translate(119.5625,197.9375)"/>
<path d="M0 0 C0.66 0 1.32 0 2 0 C2.99 2.97 3.98 5.94 5 9 C2.36 9 -0.28 9 -3 9 C-2.01 6.03 -1.02 3.06 0 0 Z " fill="#D4D8DA" transform="translate(52,168)"/>
<path d="M0 0 C0 0.99 0 1.98 0 3 C-0.66 2.67 -1.32 2.34 -2 2 C-5.8996908 1.74567234 -8.79261124 1.64791491 -12 4 C-14.24407254 7.03201925 -14.24407254 7.03201925 -16 10 C-16.33 9.01 -16.66 8.02 -17 7 C-12.1775919 0.05005891 -8.52754865 -1.67206836 0 0 Z " fill="#19191A" transform="translate(166,110)"/>
<path d="M0 0 C1.32 0.33 2.64 0.66 4 1 C3.01 1 2.02 1 1 1 C1 1.99 1 2.98 1 4 C2.32 4 3.64 4 5 4 C5.33 3.01 5.66 2.02 6 1 C6.33 1 6.66 1 7 1 C7 2.65 7 4.3 7 6 C6.34 6 5.68 6 5 6 C5 6.66 5 7.32 5 8 C3.35 8 1.7 8 0 8 C0 5.36 0 2.72 0 0 Z " fill="#93999E" transform="translate(193,197)"/>
<path d="M0 0 C3.39914975 1.13304992 4.05254451 2.12518475 6 5 C5.34 5 4.68 5 4 5 C5.63412443 6.70840281 6.86906094 7.93453047 9 9 C9 9.66 9 10.32 9 11 C3.98990293 9.56854369 1.89380576 7.17048478 -1 3 C-0.67 2.01 -0.34 1.02 0 0 Z " fill="#111214" transform="translate(97,145)"/>
<path d="M0 0 C-0.66 1.65 -1.32 3.3 -2 5 C-3.65 4.67 -5.3 4.34 -7 4 C-7 2.68 -7 1.36 -7 0 C-4.3333581 -1.33332095 -2.83319697 -0.67102033 0 0 Z " fill="#DADDDF" transform="translate(242,177)"/>
<path d="M0 0 C1.67542976 0.28604898 3.34385343 0.61781233 5 1 C5 2.65 5 4.3 5 6 C3.35 6 1.7 6 0 6 C-0.38218767 4.34385343 -0.71395102 2.67542976 -1 1 C-0.67 0.67 -0.34 0.34 0 0 Z " fill="#09121B" transform="translate(99,156)"/>
<path d="M0 0 C-0.33 1.65 -0.66 3.3 -1 5 C-2.32 5.33 -3.64 5.66 -5 6 C-5.33 4.35 -5.66 2.7 -6 1 C-4 0 -4 0 0 0 Z " fill="#E5E8EA" transform="translate(159,176)"/>
<path d="M0 0 C0.99 0.33 1.98 0.66 3 1 C2.67 3.31 2.34 5.62 2 8 C0.35 7.67 -1.3 7.34 -3 7 C-2.625 4.0625 -2.625 4.0625 -2 1 C-1.34 0.67 -0.68 0.34 0 0 Z " fill="#888C91" transform="translate(177,197)"/>
<path d="M0 0 C3.3 0 6.6 0 10 0 C10 0.66 10 1.32 10 2 C9.34 2 8.68 2 8 2 C8 4.31 8 6.62 8 9 C7.67 9 7.34 9 7 9 C7 6.69 7 4.38 7 2 C4.36 2 1.72 2 -1 2 C-0.67 1.34 -0.34 0.68 0 0 Z " fill="#8E9296" transform="translate(201,196)"/>
<path d="M0 0 C0 0.33 0 0.66 0 1 C-1.093125 1.103125 -2.18625 1.20625 -3.3125 1.3125 C-7.44724636 2.04642044 -7.44724636 2.04642044 -10 5 C-11.17574711 7.09989652 -11.17574711 7.09989652 -12 9 C-12.48 3.6 -12.48 3.6 -10.5 1.125 C-6.87739877 -0.50517055 -3.95453342 -0.19772667 0 0 Z " fill="#05090E" transform="translate(159,173)"/>
<path d="M0 0 C1.32 0 2.64 0 4 0 C3.67 1.65 3.34 3.3 3 5 C1.35 5 -0.3 5 -2 5 C-1.34 3.35 -0.68 1.7 0 0 Z " fill="#040D16" transform="translate(222,164)"/>
<path d="M0 0 C2.97 0.495 2.97 0.495 6 1 C6 2.98 6 4.96 6 7 C5.34 7 4.68 7 4 7 C0 2.52941176 0 2.52941176 0 0 Z " fill="#0D1013" transform="translate(190,110)"/>
<path d="M0 0 C0 1.65 0 3.3 0 5 C-1.65 5.33 -3.3 5.66 -5 6 C-5 3 -5 3 -3.625 1.3125 C-2 0 -2 0 0 0 Z " fill="#222427" transform="translate(187,145)"/>
<path d="M0 0 C2.66666667 2.66666667 5.33333333 5.33333333 8 8 C7.67 8.66 7.34 9.32 7 10 C2.78577758 7.11658466 1.23924145 4.95696581 0 0 Z " fill="#181919" transform="translate(128,130)"/>
<path d="M0 0 C2.4375 1.0625 2.4375 1.0625 5 3 C5.8125 6.6875 5.8125 6.6875 6 10 C3.19151983 8.59575991 3.07585415 6.89135802 2 4 C1.34786461 2.65949948 0.68620031 1.32338632 0 0 Z " fill="#C0C2C4" transform="translate(165,112)"/>
<path d="M0 0 C4.24846075 0.47205119 6.26819288 2.88877522 9 6 C9 6.66 9 7.32 9 8 C8.34 8 7.68 8 7 8 C5.62926214 6.36395804 4.29944744 4.69321939 3 3 C2.01769502 1.9826127 1.02530403 0.97403883 0 0 Z " fill="#101111" transform="translate(178,89)"/>
<path d="M0 0 C1.65 0 3.3 0 5 0 C5.33 0.99 5.66 1.98 6 3 C5.67 3.66 5.34 4.32 5 5 C3.68 5 2.36 5 1 5 C0.67 3.35 0.34 1.7 0 0 Z " fill="#E3E6E8" transform="translate(193,196)"/>
<path d="M0 0 C1.32 0.33 2.64 0.66 4 1 C3.6875 2.9375 3.6875 2.9375 3 5 C2.01 5.33 1.02 5.66 0 6 C0 4.02 0 2.04 0 0 Z " fill="#F7FAFB" transform="translate(97,198)"/>
<path d="M0 0 C1.65 0 3.3 0 5 0 C5 1.32 5 2.64 5 4 C3.35 4 1.7 4 0 4 C0 2.68 0 1.36 0 0 Z " fill="#9C9FA1" transform="translate(124,197)"/>
<path d="M0 0 C-1.55500981 3.81684226 -4.03595495 6.19195732 -7 9 C-4.4 0 -4.4 0 0 0 Z " fill="#181919" transform="translate(94,110)"/>
<path d="M0 0 C0.66 0 1.32 0 2 0 C2 2.64 2 5.28 2 8 C1.34 7.67 0.68 7.34 0 7 C0 6.34 0 5.68 0 5 C-0.66 5 -1.32 5 -2 5 C-1.34 3.35 -0.68 1.7 0 0 Z " fill="#7E8188" transform="translate(190,197)"/>
<path d="M0 0 C0.99 0.33 1.98 0.66 3 1 C2.67 3.31 2.34 5.62 2 8 C1.34 8 0.68 8 0 8 C0 5.36 0 2.72 0 0 Z " fill="#959A9F" transform="translate(185,197)"/>
<path d="M0 0 C0.99 0.33 1.98 0.66 3 1 C2.071875 2.1446875 2.071875 2.1446875 1.125 3.3125 C-1.05597052 5.99625809 -1.05597052 5.99625809 -3 9 C-2.25 2.25 -2.25 2.25 0 0 Z " fill="#C9CBCD" transform="translate(116,113)"/>
</svg>
